{"glyphs":{":":{"x_min":0,"x_max":277,"ha":277,"o":"m 149 545 q 174 545 191 527 q 208 510 208 485 q 208 460 191 443 q 174 426 149 426 q 124 426 107 443 q 89 460 89 485 q 89 510 107 527 q 125 545 149 545 z m 89 105 q 114 105 131 88 q 148 70 148 46 q 148 21 131 4 q 114 -14 89 -14 q 64 -14 47 4 q 29 21 29 46 q 29 70 47 88 q 64 105 89 105 z"},"$":{"x_min":0,"x_max":554,"ha":554,"o":"m 504 613 l 448 572 q 419 608 400 622 q 381 636 355 646 l 319 399 q 416 345 450 298 q 484 251 484 191 q 484 109 423 48 q 361 -12 259 -19 l 237 -171 l 172 -171 l 196 -15 q 126 -1 81 36 q 35 73 9 131 l 72 163 q 95 116 126 90 q 157 64 205 51 l 249 355 q 174 396 145 431 q 101 482 101 540 q 101 583 126 624 q 151 665 199 690 q 247 716 301 718 l 310 771 l 374 771 l 364 713 q 409 700 440 678 q 471 656 504 613 z m 291 652 q 235 644 203 611 q 170 579 170 538 q 170 509 192 480 q 214 452 259 430 z m 270 48 q 342 61 375 97 q 414 140 414 191 q 414 224 393 254 q 372 285 309 324 z"},"?":{"x_min":0,"x_max":591,"ha":591,"o":"m 172 537 l 106 537 q 117 642 179 696 q 241 750 336 750 q 419 750 470 706 q 521 661 521 596 q 521 547 499 511 q 476 475 430 449 q 409 437 317 405 q 240 378 212 352 q 185 324 185 296 q 185 271 209 252 q 234 233 274 233 q 323 233 354 260 q 386 287 396 340 l 462 340 q 455 258 406 213 q 356 168 273 168 q 204 168 162 207 q 120 245 120 300 q 120 353 157 392 q 194 430 334 480 q 402 505 424 523 q 454 549 454 593 q 454 634 422 659 q 391 684 329 684 q 191 684 172 537 z m 247 105 q 271 105 289 88 q 306 70 306 46 q 306 21 289 4 q 271 -14 247 -14 q 222 -14 204 4 q 187 21 187 46 q 187 70 204 88 q 222 105 247 105 z"},"<":{"x_min":0,"x_max":606,"ha":606,"o":"m 555 169 l 555 98 l 51 327 l 51 391 l 555 621 l 555 549 l 146 358 z"},"'":{"x_min":0,"x_max":198,"ha":198,"o":"m 150 510 l 100 510 l 89 736 l 162 736 z"},"=":{"x_min":0,"x_max":606,"ha":606,"o":"m 550 500 l 550 433 l 56 433 l 56 500 z m 550 285 l 550 218 l 56 218 l 56 285 z"},"a":{"x_min":0,"x_max":683,"ha":683,"o":"m 547 0 l 479 0 l 489 80 q 396 -14 277 -14 q 169 -14 99 56 q 29 126 29 236 q 29 363 120 454 q 210 545 333 545 q 399 545 449 517 q 500 489 535 430 l 547 531 l 618 531 z m 285 49 q 351 49 405 80 q 459 111 491 169 q 522 227 522 295 q 522 378 470 430 q 418 481 334 481 q 236 481 167 411 q 97 340 97 237 q 97 152 149 101 q 201 49 285 49 z"},"L":{"x_min":0,"x_max":462,"ha":462,"o":"m 120 718 l 192 718 l 106 67 l 417 67 l 408 0 l 25 0 z"},"3":{"x_min":0,"x_max":554,"ha":554,"o":"m 168 564 l 95 564 q 106 641 163 689 q 219 736 295 736 q 377 736 430 684 q 482 631 482 549 q 482 495 456 457 q 430 419 366 388 q 467 329 467 220 q 467 156 435 101 q 402 46 344 14 q 287 -18 220 -18 q 134 -18 75 37 q 16 92 4 190 l 76 190 q 84 139 101 112 q 119 85 152 68 q 186 51 222 51 q 288 51 341 102 q 394 153 394 216 q 394 256 373 290 q 353 324 314 342 q 275 359 212 359 l 220 423 l 238 422 q 315 422 363 461 q 411 500 411 553 q 411 601 376 633 q 341 666 291 666 q 244 666 210 638 q 176 610 168 564 z"},";":{"x_min":0,"x_max":277,"ha":277,"o":"m 149 545 q 174 545 192 527 q 209 510 209 485 q 209 460 192 443 q 174 426 149 426 q 125 426 107 443 q 90 460 90 485 q 90 510 107 527 q 125 545 149 545 z m 91 132 l 153 101 l 28 -83 l -18 -63 z"},"J":{"x_min":0,"x_max":482,"ha":482,"o":"m 332 718 l 403 718 l 338 223 q 323 111 304 70 q 285 28 247 5 q 210 -18 161 -18 q 115 -18 73 2 q 31 21 -12 68 l 43 107 q 104 48 162 48 q 206 48 233 88 q 253 119 267 218 z"},"V":{"x_min":0,"x_max":702,"ha":702,"o":"m 60 718 l 132 718 l 310 149 l 644 718 l 723 718 l 302 0 l 286 0 z"},"\"":{"x_min":0,"x_max":309,"ha":309,"o":"m 301 510 l 250 510 l 240 736 l 312 736 z m 111 510 l 61 510 l 50 736 l 122 736 z"},"7":{"x_min":0,"x_max":554,"ha":554,"o":"m 86 718 l 542 718 l 76 -18 l 19 18 l 419 650 l 76 650 z"},"S":{"x_min":0,"x_max":498,"ha":498,"o":"m 453 585 l 385 568 q 371 614 340 640 q 309 667 272 667 q 232 667 207 639 q 182 612 182 567 q 182 527 209 483 q 226 456 289 398 q 355 339 381 287 q 407 236 407 187 q 407 134 379 86 q 350 38 302 10 q 253 -18 199 -18 q 130 -18 80 26 q 29 70 7 155 l 74 177 q 89 113 125 82 q 160 50 206 50 q 258 50 295 89 q 333 127 333 184 q 333 226 312 265 q 291 305 229 360 q 162 421 142 453 q 109 507 109 566 q 109 640 157 688 q 206 736 277 736 q 337 736 384 698 q 431 660 453 585 z"},"}":{"x_min":0,"x_max":351,"ha":351,"o":"m 261 209 q 231 208 211 198 q 185 183 169 158 q 154 133 145 87 q 141 66 129 -14 q 117 -94 103 -129 q 88 -164 65 -185 q 42 -206 8 -215 q -12 -220 -54 -220 l -82 -220 l -71 -144 l -56 -144 q -15 -144 2 -134 q 19 -125 28 -105 q 37 -84 47 -7 q 62 95 77 137 q 92 178 116 203 q 140 228 186 249 q 146 267 127 299 q 107 331 107 385 q 107 419 120 505 q 128 568 128 589 q 128 618 114 630 q 99 642 55 642 l 40 642 l 50 718 l 78 718 q 123 718 142 712 q 174 701 193 674 q 211 646 211 603 q 211 572 198 478 q 189 410 189 383 q 189 336 210 313 q 232 290 272 289 z"},"Z":{"x_min":0,"x_max":480,"ha":480,"o":"m 106 718 l 475 718 l 123 68 l 392 68 l 382 0 l 6 0 l 360 649 l 97 649 z"},"x":{"x_min":0,"x_max":480,"ha":480,"o":"m 18 531 l 95 531 l 224 324 l 376 531 l 458 531 l 261 264 l 422 0 l 344 0 l 218 204 l 68 0 l -14 0 l 181 264 z"},")":{"x_min":0,"x_max":369,"ha":369,"o":"m 45 -208 l -34 -208 q 54 -68 105 115 q 156 297 156 489 q 156 638 125 750 l 200 750 q 229 644 229 500 q 229 313 181 128 q 132 -58 45 -208 z"},"&":{"x_min":0,"x_max":757,"ha":757,"o":"m 620 269 l 665 214 q 610 169 568 140 q 615 80 695 0 l 597 0 l 536 64 q 523 79 508 97 q 355 -18 235 -18 q 178 -18 141 2 q 104 23 80 63 q 56 104 56 148 q 56 188 70 218 q 89 259 125 293 q 160 327 266 397 q 204 488 204 550 q 204 610 251 651 q 298 692 372 692 q 435 692 476 657 q 516 621 516 573 q 516 529 487 485 q 458 440 369 377 q 418 313 478 244 l 521 193 l 575 234 z m 328 435 q 400 486 421 515 q 442 543 442 568 q 442 590 422 606 q 401 623 365 623 q 325 623 301 602 q 277 581 277 553 q 277 513 328 435 z m 308 339 q 197 272 158 225 q 129 189 129 149 q 129 103 161 76 q 193 50 232 50 q 270 50 329 75 q 373 94 462 150 q 446 167 430 187 q 346 290 308 339 z"},"_":{"x_min":0,"x_max":500,"ha":500,"o":"m -6 -75 l 506 -75 l 506 -125 l -6 -125 z"},"v":{"x_min":0,"x_max":554,"ha":554,"o":"m 27 531 l 97 531 l 231 143 l 455 531 l 529 531 l 223 0 l 210 0 z"},"O":{"x_min":0,"x_max":869,"ha":869,"o":"m 467 736 q 612 736 708 641 q 805 546 805 400 q 805 223 682 103 q 560 -18 377 -18 q 222 -18 129 75 q 36 167 36 317 q 36 433 92 530 q 147 626 246 681 q 345 736 467 736 z m 465 668 q 362 668 281 624 q 201 579 154 496 q 106 414 106 320 q 106 241 141 178 q 175 116 235 83 q 295 49 377 49 q 474 49 556 96 q 639 143 686 225 q 733 308 733 404 q 733 532 644 606 q 569 668 465 668 z"},"(":{"x_min":0,"x_max":369,"ha":369,"o":"m 270 750 l 349 750 q 261 610 210 428 q 160 247 160 50 q 160 -97 190 -208 l 115 -208 q 85 -100 85 39 q 85 226 134 413 q 183 600 270 750 z"},"C":{"x_min":0,"x_max":813,"ha":813,"o":"m 770 619 l 726 559 q 612 667 466 667 q 371 667 288 620 q 205 574 158 495 q 112 417 112 326 q 112 246 148 183 q 184 121 251 85 q 319 50 407 50 q 540 50 655 134 l 695 77 q 610 21 548 1 q 487 -18 406 -18 q 257 -18 164 57 q 39 157 39 324 q 39 496 164 616 q 288 736 473 736 q 558 736 627 710 q 696 683 770 619 z"},"W":{"x_min":0,"x_max":960,"ha":960,"o":"m 62 718 l 131 718 l 231 185 l 509 718 l 522 718 l 648 185 l 902 718 l 978 718 l 635 0 l 622 0 l 495 541 l 209 0 l 196 0 z"},"A":{"x_min":0,"x_max":740,"ha":740,"o":"m 416 718 l 657 0 l 583 0 l 504 235 l 200 235 l 66 0 l -14 0 l 399 718 z m 393 568 l 240 303 l 482 303 z"},"f":{"x_min":0,"x_max":314,"ha":314,"o":"m 325 718 l 316 654 q 279 689 247 689 q 227 689 212 669 q 197 649 189 588 l 181 531 l 290 531 l 283 471 l 173 471 l 107 0 l 40 0 l 107 471 l 40 471 l 47 531 l 115 531 l 121 578 q 133 661 146 688 q 159 716 185 733 q 211 750 242 750 q 283 750 325 718 z"},"Q":{"x_min":0,"x_max":871,"ha":871,"o":"m 683 102 l 806 -29 l 715 -29 l 632 59 q 522 -18 378 -18 q 223 -18 130 75 q 37 167 37 317 q 37 433 92 529 q 147 625 246 681 q 345 736 462 736 q 612 736 709 641 q 806 546 806 400 q 806 225 683 102 z m 634 154 q 681 203 708 268 q 734 334 734 404 q 734 521 658 594 q 582 668 459 668 q 363 668 281 623 q 200 577 154 495 q 107 413 107 320 q 107 241 142 178 q 176 116 236 83 q 296 49 377 49 q 490 49 583 111 l 462 239 l 554 239 z"},"w":{"x_min":0,"x_max":831,"ha":831,"o":"m 34 531 l 102 531 l 211 156 l 411 531 l 423 531 l 544 152 l 739 531 l 812 531 l 538 0 l 524 0 l 401 375 l 202 0 l 189 0 z"},"-":{"x_min":0,"x_max":332,"ha":332,"o":"m 10 300 l 279 300 l 271 240 l 2 240 z"},"E":{"x_min":0,"x_max":536,"ha":536,"o":"m 516 718 l 505 648 l 182 648 l 150 413 l 474 413 l 464 344 l 141 344 l 104 69 l 428 69 l 419 0 l 23 0 l 120 718 z"},"s":{"x_min":0,"x_max":388,"ha":388,"o":"m 339 472 l 302 417 q 257 480 195 480 q 160 480 135 458 q 110 435 110 407 q 110 385 125 366 q 140 346 192 312 q 269 263 293 227 q 317 189 317 141 q 317 74 270 30 q 224 -14 149 -14 q 50 -14 -17 74 l 24 122 q 83 50 153 50 q 192 50 222 78 q 251 106 251 143 q 251 172 229 200 q 215 217 153 259 q 86 305 65 335 q 44 365 44 403 q 44 462 88 503 q 133 545 201 545 q 241 545 273 529 q 306 513 339 472 z"},">":{"x_min":0,"x_max":606,"ha":606,"o":"m 51 169 l 460 358 l 51 549 l 51 621 l 555 391 l 555 327 l 51 98 z"},"l":{"x_min":0,"x_max":200,"ha":200,"o":"m 110 736 l 177 736 l 74 0 l 7 0 z"},"8":{"x_min":0,"x_max":554,"ha":554,"o":"m 364 388 q 417 361 441 327 q 476 279 476 218 q 476 155 443 100 q 410 44 352 13 q 293 -18 221 -18 q 127 -18 65 41 q 3 99 3 181 q 3 248 42 304 q 82 359 164 397 q 119 427 100 460 q 81 493 81 533 q 81 613 147 675 q 213 736 305 736 q 385 736 438 685 q 491 634 491 562 q 491 507 459 463 q 428 420 364 388 z m 303 666 q 240 666 196 626 q 153 586 153 534 q 153 487 187 457 q 220 426 275 426 q 335 426 376 466 q 418 506 418 559 q 418 604 385 635 q 352 666 303 666 z m 265 355 q 190 355 133 307 q 76 259 76 182 q 76 124 117 86 q 158 48 224 48 q 273 48 316 71 q 359 93 383 132 q 407 172 407 214 q 407 273 366 314 q 326 355 265 355 z"},"\\":{"x_min":0,"x_max":605,"ha":605,"o":"m 107 736 l 572 -98 l 498 -98 l 32 736 z"},"e":{"x_min":0,"x_max":650,"ha":650,"o":"m 569 252 l 96 252 q 94 157 145 103 q 196 49 280 49 q 336 49 384 72 q 432 95 463 136 l 514 95 q 476 45 413 16 q 351 -14 279 -14 q 154 -14 91 64 q 28 141 28 238 q 28 317 71 390 q 113 463 184 504 q 254 545 337 545 q 439 545 506 476 q 573 407 573 300 q 573 280 569 252 z m 507 311 q 504 386 456 433 q 407 479 334 479 q 254 479 194 435 q 133 390 107 311 z"},"b":{"x_min":0,"x_max":682,"ha":682,"o":"m 127 736 l 196 736 l 159 452 q 251 545 370 545 q 479 545 548 475 q 618 405 618 295 q 618 168 527 77 q 437 -14 314 -14 q 248 -14 198 14 q 147 42 112 102 l 100 0 l 29 0 z m 362 482 q 297 482 242 451 q 188 420 156 362 q 125 304 125 236 q 125 153 177 102 q 229 50 312 50 q 411 50 480 121 q 550 191 550 294 q 550 379 498 431 q 446 482 362 482 z"},"%":{"x_min":0,"x_max":775,"ha":775,"o":"m 728 750 l 90 -50 l 33 -50 l 620 688 q 577 677 529 671 q 482 666 431 666 q 407 666 369 668 q 393 630 393 588 q 393 506 338 451 q 284 396 202 396 q 135 396 93 438 q 51 479 51 544 q 51 625 110 680 q 168 736 239 736 q 258 736 299 728 q 376 712 431 712 q 491 712 553 721 q 614 731 677 750 z m 240 683 q 188 683 149 643 q 110 603 110 549 q 110 505 137 477 q 165 448 207 448 q 263 448 299 490 q 334 531 334 586 q 334 628 308 656 q 281 683 240 683 z m 579 322 q 643 322 686 279 q 730 236 730 174 q 730 98 678 40 q 626 -18 539 -18 q 472 -18 430 24 q 389 65 389 129 q 389 207 446 264 q 503 322 579 322 z m 577 269 q 524 269 486 229 q 447 189 447 135 q 447 91 474 62 q 502 33 544 33 q 601 33 636 75 q 672 117 672 171 q 672 214 645 241 q 618 269 577 269 z"},"m":{"x_min":0,"x_max":938,"ha":938,"o":"m 93 531 l 160 531 l 149 456 q 180 498 228 521 q 276 545 324 545 q 384 545 431 509 q 466 481 484 426 q 520 483 573 514 q 626 545 681 545 q 754 545 802 498 q 849 450 849 375 q 849 341 843 292 l 803 0 l 737 0 l 772 255 q 784 335 784 372 q 784 418 753 449 q 723 479 673 479 q 620 479 575 446 q 529 413 510 368 q 491 323 481 255 l 445 0 l 377 0 l 417 292 q 424 338 424 368 q 424 419 394 450 q 364 480 315 480 q 274 480 236 461 q 199 442 175 411 q 151 379 138 333 q 126 287 121 250 l 85 0 l 18 0 z"},"#":{"x_min":0,"x_max":720,"ha":720,"o":"m 602 294 l 602 241 l 481 241 l 446 0 l 391 0 l 426 241 l 264 241 l 227 0 l 173 0 l 210 241 l 90 241 l 90 294 l 218 294 l 243 457 l 120 457 l 120 510 l 251 510 l 285 739 l 337 739 l 304 510 l 466 510 l 500 739 l 554 739 l 521 510 l 630 510 l 630 457 l 513 457 l 489 294 z m 459 457 l 296 457 l 272 294 l 434 294 z"},",":{"x_min":0,"x_max":277,"ha":277,"o":"m 91 132 l 153 101 l 28 -83 l -18 -63 z"},"n":{"x_min":0,"x_max":610,"ha":610,"o":"m 94 531 l 159 531 l 149 450 q 229 545 336 545 q 418 545 469 494 q 519 444 519 358 q 519 324 508 244 l 475 0 l 408 0 l 440 244 q 451 322 451 359 q 451 415 417 449 q 384 483 329 483 q 275 483 229 455 q 183 428 158 380 q 132 333 119 229 l 87 0 l 20 0 z"},"h":{"x_min":0,"x_max":610,"ha":610,"o":"m 121 736 l 188 736 l 148 451 q 230 545 336 545 q 417 545 468 495 q 519 444 519 364 q 519 319 508 244 l 475 0 l 407 0 l 440 244 q 451 318 451 361 q 451 416 417 450 q 382 483 327 483 q 275 483 229 456 q 183 428 157 380 q 132 333 118 230 l 86 0 l 20 0 z"},"z":{"x_min":0,"x_max":425,"ha":425,"o":"m 45 531 l 410 531 l 93 61 l 381 61 l 374 0 l -28 0 l 291 471 l 37 471 z"},"B":{"x_min":0,"x_max":574,"ha":574,"o":"m 120 718 l 212 718 q 348 718 396 702 q 444 686 473 645 q 503 604 503 549 q 503 492 472 446 q 440 401 388 381 q 451 361 487 314 q 523 267 523 203 q 523 137 492 89 q 461 42 409 21 q 357 0 229 0 l 24 0 z m 182 650 l 150 412 q 171 410 199 410 q 296 410 340 425 q 383 441 407 474 q 431 508 431 548 q 431 601 393 626 q 356 651 234 651 q 213 651 182 650 z m 141 341 l 105 68 l 202 68 q 304 68 342 76 q 396 88 423 120 q 451 152 451 203 q 451 248 428 278 q 406 308 354 324 q 303 341 201 341 z"},"K":{"x_min":0,"x_max":591,"ha":591,"o":"m 119 718 l 189 718 l 151 427 l 487 718 l 590 718 l 201 382 l 538 0 l 446 0 l 141 347 l 93 0 l 23 0 z"},"R":{"x_min":0,"x_max":607,"ha":607,"o":"m 136 718 l 316 718 q 412 718 454 700 q 495 682 521 641 q 547 601 547 548 q 547 490 516 440 q 486 390 433 365 q 380 340 294 340 l 511 0 l 430 0 l 213 340 l 157 340 l 110 0 l 38 0 z m 199 649 l 167 410 l 249 410 q 341 410 369 417 q 417 429 446 464 q 475 498 475 548 q 475 604 434 629 q 403 649 322 649 z"},"T":{"x_min":0,"x_max":426,"ha":426,"o":"m 36 718 l 465 718 l 456 650 l 272 650 l 186 0 l 114 0 l 201 650 l 26 650 z"},"P":{"x_min":0,"x_max":592,"ha":592,"o":"m 128 718 l 324 718 q 421 718 463 700 q 505 682 531 642 q 556 603 556 548 q 556 478 516 425 q 476 373 415 354 q 371 339 258 339 l 149 339 l 104 0 l 32 0 z m 191 649 l 158 410 l 258 410 q 359 410 398 424 q 437 438 461 472 q 484 506 484 547 q 484 582 468 605 q 452 629 424 639 q 396 649 320 649 z"},"|":{"x_min":0,"x_max":672,"ha":672,"o":"m 301 736 l 371 736 l 371 -194 l 301 -194 z"},"t":{"x_min":0,"x_max":339,"ha":339,"o":"m 177 730 l 244 730 l 218 531 l 323 531 l 315 472 l 210 472 l 146 0 l 77 0 l 141 472 l 50 472 l 58 531 l 149 531 z"},"M":{"x_min":0,"x_max":919,"ha":919,"o":"m 802 718 l 802 0 l 734 0 l 734 495 l 423 0 l 405 0 l 219 513 l 71 0 l -1 0 l 206 718 l 218 718 l 428 135 l 791 718 z"},"g":{"x_min":0,"x_max":673,"ha":673,"o":"m 543 531 l 610 531 l 549 82 q 535 -27 514 -71 q 485 -131 418 -169 q 351 -208 260 -208 q 170 -208 107 -171 q 43 -135 11 -65 l 72 -43 q 127 -145 260 -145 q 330 -145 381 -116 q 432 -88 454 -43 q 467 -17 480 73 l 483 94 q 397 0 273 0 q 163 0 96 67 q 29 134 29 242 q 29 321 70 390 q 111 460 182 502 q 254 545 328 545 q 389 545 440 517 q 491 490 530 430 z m 341 480 q 274 480 217 448 q 159 416 128 361 q 96 307 96 239 q 96 161 146 113 q 196 65 280 65 q 381 65 448 131 q 516 198 516 299 q 516 388 461 434 q 406 480 341 480 z"},"j":{"x_min":0,"x_max":203,"ha":203,"o":"m 137 750 q 160 750 176 734 q 192 718 192 695 q 192 672 176 656 q 160 641 137 641 q 114 641 98 656 q 82 672 82 695 q 82 718 98 734 q 114 750 137 750 z m 83 531 l 150 531 l 72 -34 q 58 -139 31 -174 q 4 -208 -37 -208 q -63 -208 -96 -194 l -88 -136 q -70 -147 -53 -147 q -33 -147 -22 -131 q -6 -108 1 -55 z"},"i":{"x_min":0,"x_max":200,"ha":200,"o":"m 134 750 q 156 750 172 734 q 188 718 188 695 q 188 672 172 656 q 156 641 134 641 q 111 641 95 656 q 79 672 79 695 q 79 718 95 734 q 111 750 134 750 z m 80 531 l 145 531 l 74 0 l 7 0 z"},"y":{"x_min":0,"x_max":536,"ha":536,"o":"m 23 531 l 93 531 l 231 139 l 458 531 l 534 531 l 113 -194 l 37 -194 l 187 65 z"},"@":{"x_min":0,"x_max":867,"ha":867,"o":"m 705 147 l 757 147 q 691 65 636 33 q 557 -13 456 -13 q 349 -13 258 37 q 168 88 117 175 q 67 263 67 366 q 67 471 118 562 q 169 652 257 702 q 345 752 449 752 q 597 752 698 657 q 800 563 800 438 q 800 346 758 280 q 715 214 643 177 q 588 149 549 149 q 521 149 504 164 q 491 175 491 203 q 474 182 445 168 q 416 154 385 154 q 314 154 269 202 q 223 251 223 331 q 223 417 278 489 q 334 560 432 560 q 475 560 504 544 q 533 528 559 488 l 571 555 l 624 555 l 567 236 q 565 220 565 216 q 565 205 572 198 q 579 192 589 192 q 618 192 664 225 q 710 259 736 311 q 762 364 762 428 q 762 552 666 633 q 576 709 447 709 q 351 709 273 665 q 195 622 150 542 q 105 463 105 371 q 105 277 150 198 q 196 120 276 75 q 356 30 453 30 q 524 30 582 55 q 639 81 705 147 z m 409 209 q 441 209 470 229 q 498 250 515 290 q 536 343 536 397 q 536 446 509 477 q 481 508 437 508 q 378 508 336 460 q 293 412 293 340 q 293 280 325 244 q 358 209 409 209 z"},".":{"x_min":0,"x_max":277,"ha":277,"o":"m 89 105 q 114 105 131 88 q 148 70 148 46 q 148 21 131 4 q 114 -14 89 -14 q 64 -14 47 4 q 29 21 29 46 q 29 70 47 88 q 64 105 89 105 z"},"p":{"x_min":0,"x_max":682,"ha":682,"o":"m 100 531 l 169 531 l 159 452 q 251 545 370 545 q 479 545 548 475 q 618 405 618 295 q 618 168 527 77 q 437 -14 314 -14 q 248 -14 198 14 q 147 42 112 102 l 74 -194 l 3 -194 z m 362 482 q 297 482 242 451 q 188 420 156 362 q 125 304 125 236 q 125 153 177 102 q 229 50 312 50 q 411 50 480 121 q 550 191 550 294 q 550 379 498 431 q 446 482 362 482 z"},"X":{"x_min":0,"x_max":609,"ha":609,"o":"m 106 718 l 182 718 l 309 439 l 521 718 l 604 718 l 341 370 l 511 0 l 435 0 l 294 306 l 62 0 l -22 0 l 263 376 z"},"*":{"x_min":0,"x_max":425,"ha":425,"o":"m 195 736 l 258 736 l 244 591 l 364 677 l 396 623 l 261 562 l 396 501 l 364 446 l 244 531 l 258 386 l 195 386 l 210 531 l 90 446 l 58 501 l 195 562 l 58 623 l 90 677 l 210 591 z"},"Y":{"x_min":0,"x_max":592,"ha":592,"o":"m 41 718 l 116 718 l 270 392 l 529 718 l 616 718 l 297 318 l 254 0 l 184 0 l 227 322 z"},"c":{"x_min":0,"x_max":647,"ha":647,"o":"m 585 417 l 529 384 q 470 479 348 479 q 278 479 220 448 q 162 417 129 361 q 96 306 96 242 q 96 186 121 142 q 145 97 189 73 q 233 49 293 49 q 355 49 411 74 q 467 98 498 137 l 554 97 q 501 40 440 13 q 378 -14 296 -14 q 170 -14 100 55 q 29 124 29 238 q 29 365 122 455 q 214 545 349 545 q 429 545 491 511 q 552 477 585 417 z"},"!":{"x_min":0,"x_max":295,"ha":295,"o":"m 155 736 l 222 736 l 148 179 l 80 179 z m 100 105 q 125 105 142 88 q 160 70 160 46 q 160 21 142 4 q 125 -14 100 -14 q 75 -14 58 4 q 41 21 41 46 q 41 70 58 88 q 75 105 100 105 z"},"/":{"x_min":0,"x_max":437,"ha":437,"o":"m 408 736 l 110 -98 l 35 -98 l 333 736 z"},"[":{"x_min":0,"x_max":351,"ha":351,"o":"m 181 736 l 345 736 l 335 667 l 239 667 l 128 -127 l 223 -127 l 214 -194 l 50 -194 z"},"6":{"x_min":0,"x_max":554,"ha":554,"o":"m 348 736 l 399 694 l 207 465 q 241 476 268 476 q 351 476 414 417 q 488 348 488 237 q 488 129 417 55 q 346 -18 242 -18 q 143 -18 76 49 q 10 117 10 217 q 10 282 38 342 q 65 403 157 510 z m 252 411 q 181 411 131 357 q 81 303 81 223 q 81 149 127 101 q 174 52 240 52 q 307 52 362 103 q 417 153 417 238 q 417 312 369 361 q 321 411 252 411 z"},"r":{"x_min":0,"x_max":301,"ha":301,"o":"m 65 531 l 133 531 l 124 464 q 151 502 190 524 q 229 545 269 545 q 298 545 329 531 l 297 469 q 271 479 254 479 q 219 479 184 454 q 149 429 127 382 q 105 334 90 225 l 59 0 l -7 0 z"},"2":{"x_min":0,"x_max":554,"ha":554,"o":"m 134 501 l 62 501 q 67 613 128 675 q 189 736 287 736 q 369 736 424 682 q 479 628 479 549 q 479 493 451 438 q 423 384 305 256 l 138 71 l 446 71 l 438 0 l -20 0 l 217 263 q 353 414 380 461 q 406 508 406 551 q 406 601 370 635 q 334 669 279 669 q 217 669 177 625 q 138 582 134 501 z"},"{":{"x_min":0,"x_max":351,"ha":351,"o":"m 30 289 q 60 290 80 300 q 107 314 123 340 q 138 365 147 410 q 151 432 163 512 q 175 592 189 627 q 204 662 227 682 q 250 703 283 712 q 304 718 346 718 l 373 718 l 362 642 l 347 642 q 306 642 290 632 q 273 623 264 602 q 255 582 244 505 q 230 402 215 361 q 200 319 176 294 q 152 270 106 249 q 146 231 165 199 q 185 167 185 113 q 185 79 172 -7 q 164 -70 164 -91 q 164 -120 178 -132 q 193 -144 237 -144 l 252 -144 l 241 -220 l 214 -220 q 169 -220 150 -214 q 117 -204 99 -176 q 81 -148 81 -105 q 81 -75 94 20 q 103 87 103 115 q 103 161 81 185 q 60 208 19 209 z"},"9":{"x_min":0,"x_max":554,"ha":554,"o":"m 171 -18 l 120 24 l 313 252 q 279 242 252 242 q 169 242 106 301 q 32 370 32 481 q 32 589 103 663 q 174 736 277 736 q 376 736 443 669 q 510 601 510 501 q 510 436 482 376 q 454 315 363 208 z m 268 307 q 339 307 389 361 q 439 415 439 495 q 439 568 393 617 q 346 666 280 666 q 213 666 158 615 q 104 564 104 480 q 104 407 151 357 q 199 307 268 307 z"}," ":{"x_min":0,"x_max":277,"ha":277,"o":""},"I":{"x_min":0,"x_max":226,"ha":226,"o":"m 116 718 l 188 718 l 91 0 l 19 0 z"},"H":{"x_min":0,"x_max":683,"ha":683,"o":"m 120 718 l 190 718 l 152 426 l 520 426 l 559 718 l 628 718 l 534 0 l 464 0 l 511 358 l 142 358 l 95 0 l 23 0 z"},"4":{"x_min":0,"x_max":554,"ha":554,"o":"m 436 736 l 368 224 l 468 224 l 459 152 l 359 152 l 339 0 l 270 0 l 290 152 l -25 152 l 421 736 z m 337 509 l 119 224 l 299 224 z"},"~":{"x_min":0,"x_max":606,"ha":606,"o":"m 551 409 l 551 330 q 496 299 472 291 q 449 283 428 283 q 381 283 298 320 q 234 350 216 355 q 198 361 183 361 q 161 361 135 352 q 109 342 55 310 l 55 388 q 108 418 132 426 q 156 435 179 435 q 226 435 310 395 q 367 368 388 361 q 410 354 427 354 q 447 354 468 363 q 489 371 551 409 z"},"D":{"x_min":0,"x_max":744,"ha":744,"o":"m 118 718 l 272 718 q 418 718 497 680 q 575 642 623 561 q 670 481 670 378 q 670 268 616 175 q 562 82 484 41 q 405 0 249 0 l 22 0 z m 180 649 l 103 70 l 166 70 q 312 70 359 78 q 431 89 480 124 q 530 158 565 227 q 600 295 600 376 q 600 462 560 526 q 521 590 451 622 q 392 649 251 649 z"},"^":{"x_min":0,"x_max":672,"ha":672,"o":"m 307 718 l 365 718 l 614 178 l 549 178 l 334 643 l 122 178 l 59 178 z"},"0":{"x_min":0,"x_max":554,"ha":554,"o":"m 309 736 q 391 736 446 666 q 501 595 501 465 q 501 317 456 199 q 411 81 347 31 q 284 -18 211 -18 q 157 -18 115 11 q 73 40 48 99 q 22 158 22 251 q 22 406 65 521 q 109 637 174 687 q 238 736 309 736 z m 302 668 q 258 668 209 625 q 160 583 127 483 q 95 383 95 245 q 95 146 129 98 q 164 50 215 50 q 268 50 316 98 q 365 146 393 236 q 429 348 429 476 q 429 572 393 620 q 356 668 302 668 z"},"F":{"x_min":0,"x_max":485,"ha":485,"o":"m 466 718 l 458 648 l 182 648 l 150 413 l 426 413 l 417 344 l 141 344 l 94 0 l 23 0 l 120 718 z"},"`":{"x_min":0,"x_max":378,"ha":378,"o":"m 210 780 l 295 630 l 228 630 l 105 780 z"},"k":{"x_min":0,"x_max":502,"ha":502,"o":"m 123 736 l 189 736 l 133 334 l 389 531 l 496 531 l 187 294 l 459 0 l 368 0 l 123 264 l 87 0 l 19 0 z"},"u":{"x_min":0,"x_max":608,"ha":608,"o":"m 92 531 l 160 531 l 129 309 q 117 215 117 188 q 117 127 157 88 q 198 50 265 50 q 321 50 362 79 q 403 108 420 156 q 429 180 441 266 l 479 531 l 546 531 l 519 330 q 500 186 478 125 q 456 64 399 25 q 343 -14 262 -14 q 169 -14 111 43 q 52 99 52 184 q 52 217 57 262 l 62 309 l 64 329 z"},"]":{"x_min":0,"x_max":351,"ha":351,"o":"m 117 -194 l -47 -194 l -37 -125 l 58 -125 l 170 669 l 75 669 l 84 736 l 248 736 z"},"U":{"x_min":0,"x_max":655,"ha":655,"o":"m 114 718 l 185 718 l 130 307 q 120 225 120 190 q 120 123 158 87 q 197 50 267 50 q 316 50 354 67 q 393 83 419 115 q 446 147 457 188 q 477 261 491 371 l 536 718 l 606 718 l 559 355 l 547 267 q 537 205 522 161 q 508 117 485 83 q 462 50 433 28 q 404 7 362 -6 q 320 -18 269 -18 q 163 -18 105 36 q 47 89 47 178 q 47 203 50 234 l 61 318 z"},"o":{"x_min":0,"x_max":655,"ha":655,"o":"m 332 545 q 400 545 457 512 q 513 480 545 422 q 577 364 577 291 q 577 208 536 136 q 496 64 427 25 q 359 -14 272 -14 q 166 -14 96 56 q 27 126 27 235 q 27 320 68 392 q 108 463 179 504 q 250 545 332 545 z m 331 480 q 267 480 211 448 q 155 417 125 361 q 95 306 95 239 q 95 155 147 102 q 199 50 281 50 q 345 50 397 80 q 449 111 479 168 q 510 226 510 292 q 510 347 487 390 q 464 433 422 456 q 380 480 331 480 z"},"N":{"x_min":0,"x_max":740,"ha":740,"o":"m 618 718 l 688 718 l 591 0 l 575 0 l 171 557 l 96 0 l 24 0 l 121 718 l 137 718 l 542 161 z"},"+":{"x_min":0,"x_max":606,"ha":606,"o":"m 270 393 l 270 604 l 336 604 l 336 393 l 550 393 l 550 326 l 336 326 l 336 114 l 270 114 l 270 326 l 56 326 l 56 393 z"},"G":{"x_min":0,"x_max":872,"ha":872,"o":"m 780 564 l 722 521 q 668 592 595 630 q 522 668 445 668 q 359 668 280 622 q 201 576 156 499 q 111 423 111 335 q 111 217 196 134 q 280 50 402 50 q 475 50 542 80 q 608 110 650 159 q 691 208 710 281 l 447 281 l 447 352 l 797 352 q 786 187 678 84 q 571 -18 410 -18 q 245 -18 142 82 q 39 182 39 333 q 39 441 93 535 q 147 628 242 682 q 337 736 447 736 q 646 736 780 564 z"},"q":{"x_min":0,"x_max":682,"ha":682,"o":"m 521 -194 l 452 -194 l 488 80 q 396 -14 277 -14 q 168 -14 99 56 q 29 126 29 236 q 29 363 119 454 q 210 545 333 545 q 399 545 449 517 q 499 489 535 430 l 547 531 l 618 531 z m 284 49 q 350 49 404 80 q 458 111 490 169 q 522 227 522 295 q 522 378 470 430 q 417 481 334 481 q 236 481 166 411 q 96 340 96 237 q 96 152 148 101 q 201 49 284 49 z"},"d":{"x_min":0,"x_max":685,"ha":685,"o":"m 548 0 l 479 0 l 490 80 q 397 -14 278 -14 q 170 -14 100 56 q 30 126 30 236 q 30 363 121 454 q 211 545 334 545 q 400 545 450 517 q 500 489 536 430 l 576 736 l 646 736 z m 286 49 q 352 49 406 80 q 460 111 492 169 q 523 227 523 295 q 523 378 471 430 q 419 481 335 481 q 237 481 167 411 q 98 340 98 237 q 98 152 150 101 q 202 49 286 49 z"},"1":{"x_min":0,"x_max":554,"ha":554,"o":"m 220 718 l 370 718 l 275 0 l 205 0 l 291 649 l 194 649 z"},"5":{"x_min":0,"x_max":554,"ha":554,"o":"m 222 718 l 513 718 l 503 647 l 273 647 l 222 474 q 246 477 261 477 q 313 477 360 447 q 408 417 436 363 q 464 309 464 245 q 464 173 430 111 q 396 48 340 15 q 285 -18 216 -18 q 143 -18 87 20 q 32 58 -5 139 l 61 167 q 86 110 127 81 q 169 51 218 51 q 283 51 337 103 q 391 155 391 244 q 391 318 347 365 q 304 412 236 412 q 184 412 123 387 z"}}}
